HIERARCHY
ROOT Hips
{
  OFFSET 265.287 66.7526 -254.649
  CHANNELS 6 Xposition Yposition Zposition Zrotation Xrotation Yrotation
  JOINT LeftUpLeg
  {
    OFFSET 8.64259 1.95398 -2.38835
    CHANNELS 3 Zrotation Xrotation Yrotation
    JOINT LeftLeg
    {
      OFFSET 43.7702 0 0
      CHANNELS 3 Zrotation Xrotation Yrotation
      JOINT LeftFoot
      {
        OFFSET 40.6238 0 0
        CHANNELS 3 Zrotation Xrotation Yrotation
        JOINT LeftToeBase
        {
          OFFSET 12.7242 0 0
          CHANNELS 3 Zrotation Xrotation Yrotation
          End Site
          {
            OFFSET 0 0 0
          }
        }
      }
    }
  }
  JOINT RightUpLeg
  {
    OFFSET -8.2249 1.95398 -2.59336
    CHANNELS 3 Zrotation Xrotation Yrotation
    JOINT RightLeg
    {
      OFFSET 43.5653 0 0
      CHANNELS 3 Zrotation Xrotation Yrotation
      JOINT RightFoot
      {
        OFFSET 40.6238 0 0
        CHANNELS 3 Zrotation Xrotation Yrotation
        JOINT RightToeBase
        {
          OFFSET 12.7242 0 0
          CHANNELS 3 Zrotation Xrotation Yrotation
          End Site
          {
            OFFSET 0 0 0
          }
        }
      }
    }
  }
  JOINT Spine
  {
    OFFSET 0.165834 0.87714 6.61349
    CHANNELS 3 Zrotation Xrotation Yrotation
    JOINT Spine1
    {
      OFFSET 7.38963 1.71661e-005 0
      CHANNELS 3 Zrotation Xrotation Yrotation
      JOINT Spine2
      {
        OFFSET 11.9445 1.14441e-005 0
        CHANNELS 3 Zrotation Xrotation Yrotation
        JOINT Spine3
        {
          OFFSET 14.7254 4.19617e-005 0
          CHANNELS 3 Zrotation Xrotation Yrotation
          JOINT Spine4
          {
            OFFSET 10.9679 0 0
            CHANNELS 3 Zrotation Xrotation Yrotation
            JOINT RightShoulder
            {
              OFFSET 2.46616 -1.6653 3.69651
              CHANNELS 3 Zrotation Xrotation Yrotation
              JOINT RightArm
              {
                OFFSET 13.0012 0 0
                CHANNELS 3 Zrotation Xrotation Yrotation
                JOINT RightForeArm
                {
                  OFFSET 28.7848 1.52588e-005 0
                  CHANNELS 3 Zrotation Xrotation Yrotation
                  JOINT RightHand
                  {
                    OFFSET 26.5688 1.52588e-005 0
                    CHANNELS 3 Zrotation Xrotation Yrotation
                    End Site
                    {
                      OFFSET 0 0 0
                    }
                  }
                }
              }
            }
            JOINT LeftShoulder
            {
              OFFSET 2.38034 -1.29275 -3.7523
              CHANNELS 3 Zrotation Xrotation Yrotation
              JOINT LeftArm
              {
                OFFSET 16.3182 6.10351e-005 0
                CHANNELS 3 Zrotation Xrotation Yrotation
                JOINT LeftForeArm
                {
                  OFFSET 27.0901 0 0
                  CHANNELS 3 Zrotation Xrotation Yrotation
                  JOINT LeftHand
                  {
                    OFFSET 24.5451 1.52588e-005 0
                    CHANNELS 3 Zrotation Xrotation Yrotation
                    End Site
                    {
                      OFFSET 0 0 0
                    }
                  }
                }
              }
            }
            JOINT Neck
            {
              OFFSET 5.0226 -0.0266342 0
              CHANNELS 3 Zrotation Xrotation Yrotation
              JOINT Head
              {
                OFFSET 6.69364 2.86102e-005 0
                CHANNELS 3 Zrotation Xrotation Yrotation
                End Site
                {
                  OFFSET 0 0 0
                }
              }
            }
          }
        }
      }
    }
  }
}
MOTION
Frames:	12
Frame Time:	0.0416667
2.25051 96.7865 -15.969 106.196 -82.7926 104.158 -173.856 -0.918002 90.9207 -11.4271 7.96026 2.78744 66.3698 2.88318 -2.11621 30.5294 -0.742721 2.04946 174.855 -1.03521 88.518 -13.107 -4.31352 -0.542902 70.3463 -5.50114 0.0810191 26.9001 0.253829 0.156132 -0.288264 6.99136 -90.7862 12.8829 -0.949098 -1.45754 1.21151 -1.01232 -1.41438 -21.318 -0.467243 -1.67533 -1.30533 -0.467239 -1.67534 101.517 -50.5677 -83.1703 26.3293 -7.28055 -6.52353 2.71902 -14.2061 -10.6896 -13.293 -0.85606 2.36069 -81.5509 -51.7 91.354 -29.3945 13.2173 -16.5 3.24641 21.6478 -7.00617 3.37049 -0.06413 -3.84337 6.60636 -1.559 4.97659 -8.49613 -2.25926 -5.73364 
2.45222 96.7724 -16.0041 106.409 -82.0605 103.973 -173.967 -1.21533 90.5686 -11.1047 8.74982 2.62238 65.9238 2.81677 -1.84365 30.9531 -0.878934 2.19016 174.533 -0.932019 88.0566 -13.6539 -4.46668 -0.481571 70.0341 -5.49058 -0.966652 28.0592 0.0310083 0.607462 -0.333078 6.96648 -90.9611 12.9291 -1.1223 -1.78612 1.25749 -1.19981 -1.73502 -21.269 -0.533734 -2.04074 -1.25638 -0.533738 -2.04074 101.509 -51.049 -83.1768 25.0468 -7.38081 -6.31398 2.98864 -13.1938 -11.1884 -14.9519 -0.995621 2.60023 -81.85 -51.4114 90.8888 -30.3652 12.8668 -16.0218 3.50937 21.519 -7.00496 3.57944 -0.0943506 -4.44375 7.01521 -1.53549 4.66984 -8.87129 -2.18121 -5.55816 
2.47921 96.7949 -16.0253 105.516 -81.3984 102.667 -174.145 -1.48884 90.217 -10.4985 9.13203 2.55947 65.633 2.75346 -2.03468 30.7769 -0.815612 2.05938 174.337 -0.992739 87.664 -13.7389 -4.07669 -0.539362 70.1704 -5.43553 -0.73187 27.8863 0.109317 0.17408 -0.359813 6.92157 -91.1743 13.0133 -1.27833 -2.19189 1.34128 -1.37354 -2.13354 -21.1804 -0.560708 -2.47457 -1.16776 -0.560711 -2.47458 101.609 -50.8815 -83.0254 24.3318 -6.7109 -6.64803 2.88148 -13.8532 -10.7666 -15.0893 -1.04327 2.89567 -82.0526 -51.2309 90.5726 -31.0284 13.2594 -15.9732 3.31694 21.6852 -6.78651 3.66037 -0.0687796 -3.96507 7.63269 -1.53631 4.22127 -9.32423 -2.13067 -4.80351 
2.31107 96.8068 -16.0573 105.212 -80.9878 101.807 -174.447 -1.78228 89.7994 -9.90614 9.00343 2.53629 65.3468 2.70331 -2.37895 30.545 -0.728437 1.85454 174.185 -0.692947 87.2307 -14.4333 -3.03802 -0.665646 70.7692 -5.22174 0.381734 27.5015 0.149334 0.294115 -0.312403 6.93123 -91.3742 12.9898 -1.28006 -2.59287 1.31706 -1.39289 -2.53408 -21.1983 -0.441974 -2.85749 -1.18568 -0.441973 -2.85749 101.98 -50.5907 -82.4538 23.3811 -7.04463 -7.52809 3.52049 -11.6967 -10.0913 -15.9212 -0.938808 1.69554 -82.5112 -52.1408 89.9622 -30.349 13.5587 -16.8582 3.1886 22.7059 -6.73337 3.17733 -0.0654254 -3.85716 8.42832 -1.83356 4.33912 -9.73221 -2.43388 -5.25266 
2.13503 96.7716 -16.0733 107.047 -80.4412 102.914 -175.031 -2.34069 89.1463 -9.62977 9.11251 2.64223 65.2558 2.88188 -2.16924 30.5162 -0.728271 1.9398 173.71 -0.578126 86.4941 -15.4724 -2.49993 -0.583831 71.4701 -5.0924 1.06159 27.4793 0.106522 0.657997 -0.360304 6.93605 -91.5105 12.9752 -1.44034 -2.84578 1.30209 -1.56414 -2.7797 -21.2094 -0.51896 -3.14679 -1.19672 -0.518962 -3.14678 101.795 -50.3161 -82.7417 22.8481 -7.13256 -7.45567 3.81929 -11.1557 -9.92728 -16.5615 -1.03699 2.11008 -82.6048 -52.4193 89.846 -30.4847 13.4569 -16.7265 3.26066 22.1075 -6.80443 3.05749 -0.0437507 -3.3835 8.5145 -1.76835 4.76114 -10.0115 -2.4048 -6.04171 
1.89031 96.7329 -16.0031 109.771 -80.4596 105.424 -175.056 -2.59756 89.1561 -9.99695 8.58361 2.66112 65.3977 2.95545 -2.61933 30.7117 -0.803343 2.12969 173.596 -0.609553 86.355 -16.2436 -2.96699 -0.560074 71.6622 -5.02997 0.994431 27.511 0.133143 0.411043 -0.359301 6.91194 -91.6892 13.0178 -1.5246 -3.19235 1.34398 -1.66357 -3.12224 -21.161 -0.495366 -3.50257 -1.14833 -0.495362 -3.50256 101.732 -50.0013 -82.8418 22.5435 -7.22772 -6.84177 3.97038 -10.963 -10.2105 -17.5846 -1.21855 2.88715 -82.5432 -51.667 89.8752 -31.8453 13.6215 -16.0001 3.64808 22.2489 -7.42437 2.97584 -0.0746845 -4.0252 8.08828 -1.81086 3.84424 -9.39988 -2.33993 -4.68295 
1.53224 96.7112 -15.9494 111.03 -80.1208 106.29 -175.216 -2.87545 89.0531 -10.015 8.48775 2.68421 65.2879 2.99432 -3.02108 30.806 -0.852031 2.35611 173.5 -0.776478 86.2189 -16.6854 -3.05121 -0.592439 72.0532 -5.2165 0.814428 27.3905 0.190518 0.100688 -0.399977 6.847 -91.8383 13.1413 -1.67874 -3.4699 1.46696 -1.82975 -3.39277 -21.0326 -0.559159 -3.81349 -1.01992 -0.55915 -3.8135 102.284 -50.0168 -81.9818 21.6125 -7.25387 -6.58762 4.17073 -10.4475 -10.1679 -17.8028 -1.2219 2.81143 -82.8822 -51.1211 89.3231 -33.2778 13.6971 -15.1911 3.84236 22.6687 -7.56857 2.26959 -0.0763721 -4.05644 7.71266 -1.87944 3.50122 -9.63263 -2.32612 -4.50486 
1.16214 96.6136 -15.85 111.671 -79.789 106.652 -175.646 -2.56054 88.9164 -11.0366 7.86928 2.8404 65.6892 3.24183 -3.43035 31.2506 -1.00483 2.63773 173.436 -0.668398 86.1473 -17.5154 -2.55031 -0.562716 72.744 -5.14171 1.3864 27.0728 0.27474 -0.195761 -0.473986 6.81759 -91.9938 13.1927 -1.90131 -3.75336 1.51793 -2.06454 -3.6662 -20.976 -0.686477 -4.15055 -0.963384 -0.686469 -4.15056 102.414 -49.8329 -81.7777 20.5765 -7.18125 -6.78322 4.53871 -9.33384 -9.58004 -18.5 -1.19957 2.34859 -82.8278 -50.941 89.3885 -33.855 14.1685 -15.3634 3.76897 22.9113 -7.68528 1.81015 -0.0956071 -4.50394 8.25868 -1.83836 3.2484 -10.2918 -2.19956 -4.85844 
0.785123 96.4944 -15.6712 115.211 -80.1883 110.309 -175.87 -2.1674 89.1439 -13.0115 6.96795 3.01557 66.4719 3.67021 -3.3341 31.9893 -1.22839 2.7975 173.496 -0.943015 86.4189 -18.0895 -2.78096 -0.535224 73.4599 -5.54137 1.38039 26.6375 0.274328 0.286736 -0.492824 6.81233 -92.135 13.1966 -2.00676 -4.02264 1.5213 -2.18172 -3.93059 -20.9664 -0.706375 -4.43893 -0.953728 -0.706379 -4.43893 102.489 -50.4646 -81.6641 18.5962 -7.41327 -6.32319 4.71283 -8.15453 -10.4169 -18.097 -1.27202 2.99334 -82.714 -50.4553 89.5171 -34.2164 14.475 -15.3993 4.20819 23.5498 -8.49801 2.46271 -0.0907311 -4.37455 8.05747 -1.79879 2.08871 -10.3056 -1.93216 -4.52981 
0.459671 96.3428 -15.4036 118.322 -80.6894 113.467 -175.887 -1.93824 89.3668 -14.4441 6.42103 2.88629 67.3055 4.30013 -2.58026 32.4039 -1.34615 2.80554 173.429 -0.879441 86.4825 -18.9892 -3.03598 -0.413168 74.177 -5.68293 1.78942 26.2551 0.2673 0.736607 -0.513671 6.74916 -92.2058 13.3192 -2.08421 -4.15252 1.64354 -2.2648 -4.05699 -20.841 -0.741352 -4.586 -0.828404 -0.741346 -4.58599 102.597 -50.6801 -81.4987 17.8066 -7.06776 -5.90217 4.72395 -7.25241 -10.32 -18.206 -1.28679 3.03802 -82.6092 -49.9793 89.6354 -34.6231 14.1719 -15.4982 4.52685 24.646 -8.52106 1.52269 -0.114203 -5.04793 7.78158 -1.70613 1.08358 -10.6098 -1.64838 -4.07526 
0.0712564 96.1323 -15.3168 118.872 -80.215 114.604 -176.187 -0.746333 90.0916 -17.3441 6.73798 3.14101 68.2882 4.92737 -1.87469 33.2008 -1.61848 3.47218 173.553 -1.14746 87.2341 -19.4309 -2.57475 -0.103791 74.7334 -5.79006 2.07793 26.328 0.369637 -0.0731444 -0.664339 6.66079 -92.2683 13.4893 -2.41636 -4.23304 1.81406 -2.60016 -4.12282 -20.6705 -1.0341 -4.76234 -0.657874 -1.03411 -4.76233 102.498 -50.9888 -81.6539 17.3658 -6.8759 -5.64132 5.01316 -5.50477 -9.43116 -18.0958 -1.19797 2.5154 -82.4386 -49.2827 89.8358 -35.3993 14.027 -15.3789 4.91688 24.6758 -8.71372 2.32226 -0.143259 -5.71483 7.34611 -1.68123 -1.14157 -10.3428 -1.28478 -2.23173 
-0.47183 96.0365 -14.9527 130.316 -81.8764 126.294 -175.423 -1.61589 90.6154 -17.9498 5.04591 2.88185 69.5365 5.36596 -2.2979 32.6345 -1.5487 4.60599 173.74 -1.47279 87.5427 -20.0765 -4.1933 -0.185609 75.161 -6.30422 1.81401 26.1813 0.259255 0.874494 -0.587806 6.62108 -92.2439 13.5719 -2.25412 -4.20352 1.8964 -2.43678 -4.10046 -20.5878 -0.888163 -4.68555 -0.575169 -0.888168 -4.68556 102.057 -51.5669 -82.3311 16.7434 -6.83338 -4.95779 5.34165 -4.92567 -8.74963 -18.6403 -1.26755 2.72834 -82.3809 -49.0033 89.9003 -35.7742 14.473 -14.5168 5.31264 24.809 -9.92778 1.70773 -0.00873599 -1.85554 6.07549 -1.34025 -2.10135 -10.1947 -0.80901 -1.86615 
